<?xml version="1.0"?>
<svg version="1.1" xmlns="http://www.w3.org/2000/svg" width="400" height="200" style="border: dashed 2px #aaa"><path fill="#e3480b" d="M15.7,112l0-1.7l1.5-0.6l0-9.4l-1.5-0.6l0-1.7l4.6-0.1l1.9,0c3.06,0,4.86,1.6,4.86,4.2c0,3.36-2.06,5-5.7,5l-1.06,0l0,2.6l1.5,0.6l0,1.7l-6.1,0z M20.3,104.76l1.06,0c1.66,0,2.6-0.78,2.6-2.26c0-1.3-0.7-2.2-2.06-2.2l-1.6,0l0,4.46z M30.7902,97.9c0-1.14,0.82-1.8,1.72-1.8c1.04,0,1.68,0.54,1.68,1.8c0,1.18-0.86,1.82-1.68,1.82c-1.08,0-1.72-0.64-1.72-1.82z M34.1502,109.9l1.4,0.5l0,1.6l-6,0l0-1.6l1.6-0.5l0-6.5l-1.6-0.5l0-1.6l4.6-0.1l0,8.7z M46.7404,108.74l1,1.76c-0.5,0.44-2.06,1.7-4.3,1.7c-3.3,0-5.2-2.04-5.2-5.44c0-3.56,2-5.76,5.5-5.76c1.72,0,3.5,0.7,3.5,0.7l-0.1,3.28l-1.8,0l-0.28-1.42s-0.58-0.16-1.38-0.16c-1.44,0-2.34,0.96-2.34,2.96c0,2.18,0.84,3.44,2.5,3.44c1.4,0,2.28-0.7,2.9-1.06z M54.4306,105.22l1.32,0l1.36-2.04l-0.88-0.28l0-1.6l5.16-0.1l0,1.7l-1.4,0.26l-1.86,2.62l2.24,4.14l1.52,0.48l0,1.6l-3.7,0l-2.48-4.88l-1.28,0l0,2.78l1.1,0.5l0,1.6l-5.7,0l0-1.6l1.6-0.5l0-11.24l-1.6-0.4l0-1.6l4.6-0.16l0,8.72z M63.7808,102.9l0-1.6l4.6-0.1l0,6.9c0,1.1,0.32,1.6,1.22,1.6c1.3,0,2.26-1.08,2.26-1.08l0-5.22l-1.6-0.5l0-1.6l4.6-0.1l0,8.7l1.6,0.4l0,1.56l-4.22,0.14l-0.2-1.4s-1.6,1.6-3.5,1.6c-2,0-3.16-1.34-3.16-3.58l0-5.22z M78.651,101.3l4.26-0.1l0.18,1.12s1.36-1.32,2.96-1.32c2.78,0,4.16,2.06,4.16,5.3c0,3.7-1.76,5.9-5.26,5.9c-0.58,0-1.18-0.08-1.7-0.2l0,2.54l1.9,0.46l0,1.6l-6.46,0l0-1.6l1.56-0.46l0-11.14l-1.6-0.5l0-1.6z M83.251,104.5l0,5.1c0.32,0.14,0.8,0.3,1.56,0.3c1.72,0,2.3-1.2,2.3-3.24c0-2.02-0.54-3.26-2-3.26c-1.3,0-1.86,1.1-1.86,1.1z M93.1012,112l0-1.7l1.5-0.6l0-9.4l-1.5-0.6l0-1.7l4.6-0.1l1.9,0c3.06,0,4.86,1.6,4.86,4.2c0,3.36-2.06,5-5.7,5l-1.06,0l0,2.6l1.5,0.6l0,1.7l-6.1,0z M97.7012,104.76l1.06,0c1.66,0,2.6-0.78,2.6-2.26c0-1.3-0.7-2.2-2.06-2.2l-1.6,0l0,4.46z M112.3514,101c3.24,0,5.04,1.96,5.04,5.4c0,3.6-2.1,5.8-5.34,5.8c-3.26,0-5.1-1.7-5.1-5.5c0-3.6,2.14-5.7,5.4-5.7z M112.2514,103.4c-1.46,0-2.2,0.8-2.2,3.2c0,2.2,0.64,3.2,2.1,3.2c1.44,0,2.14-0.9,2.14-3.3c0-2.04-0.6-3.1-2.04-3.1z M125.5816,101c3.24,0,5.04,1.96,5.04,5.4c0,3.6-2.1,5.8-5.34,5.8c-3.26,0-5.1-1.7-5.1-5.5c0-3.6,2.14-5.7,5.4-5.7z M125.4816,103.4c-1.46,0-2.2,0.8-2.2,3.2c0,2.2,0.64,3.2,2.1,3.2c1.44,0,2.14-0.9,2.14-3.3c0-2.04-0.6-3.1-2.04-3.1z M137.7318,109.9l1.8,0.5l0,1.6l-6.42,0l0-1.6l1.6-0.5l0-11.24l-1.6-0.4l0-1.6l4.62-0.16l0,13.4z"/><path fill="#" d=""/></svg>
